<?xml version="1.0" standalone="no"?>
<!DOCTYPE svg PUBLIC "-//W3C//DTD SVG 20010904//EN"
 "http://www.w3.org/TR/2001/REC-SVG-20010904/DTD/svg10.dtd">
<svg version="1.0" xmlns="http://www.w3.org/2000/svg"
 width="512.000000pt" height="512.000000pt" viewBox="0 0 512.000000 512.000000"
 preserveAspectRatio="xMidYMid meet">
<metadata>
Created by potrace 1.11, written by Peter Selinger 2001-2013
</metadata>
<g transform="translate(0.000000,512.000000) scale(0.100000,-0.100000)"
fill="#000000" stroke="none">
<path d="M1162 4025 c-4 -5 -8 -566 -9 -1245 -1 -679 -2 -1246 -2 -1260 -1
-15 -12 -32 -29 -43 -56 -38 -119 -146 -137 -234 -12 -57 -17 -153 -9 -154 25
-5 3151 -5 3163 -1 23 8 2 159 -35 247 -24 59 -71 122 -104 142 l-30 17 0
1268 c0 1200 -1 1268 -17 1270 -10 0 -640 2 -1401 2 -949 1 -1386 -1 -1390 -9z
m568 -244 c70 -36 100 -140 64 -218 -58 -121 -248 -119 -300 4 -65 152 88 290
236 214z m618 5 c107 -56 117 -224 17 -286 -109 -68 -247 -4 -259 120 -5 47
12 100 42 133 43 49 139 65 200 33z m582 9 c91 -21 137 -151 86 -242 -64 -113
-242 -104 -292 14 -39 90 12 211 95 229 14 3 31 7 36 9 10 2 31 0 75 -10z
m658 -9 c106 -55 117 -217 19 -283 -106 -73 -249 -8 -261 117 -7 80 26 138 97
170 43 20 103 18 145 -4z m-1866 -617 c107 -57 118 -212 21 -287 -29 -22 -45
-26 -98 -26 -53 0 -68 4 -99 28 -80 60 -89 182 -19 252 49 50 137 64 195 33z
m628 -4 c16 -8 41 -31 57 -51 38 -50 39 -134 3 -188 -88 -129 -291 -77 -305
79 -4 41 15 97 43 129 45 50 137 64 202 31z m606 -1 c59 -28 94 -111 80 -189
-4 -18 -21 -49 -40 -68 -102 -108 -286 -41 -286 104 0 137 121 212 246 153z
m-1219 -610 c53 -40 68 -71 68 -139 0 -49 -5 -70 -21 -91 -36 -49 -70 -67
-131 -72 -48 -3 -64 0 -92 20 -54 37 -74 71 -79 135 -3 49 0 64 20 93 13 19
39 45 58 58 29 20 44 23 93 20 37 -3 67 -11 84 -24z m596 17 c117 -45 138
-219 35 -293 -47 -33 -149 -33 -196 0 -43 32 -65 76 -66 138 -1 93 68 163 161
164 23 0 53 -4 66 -9z m644 -28 c120 -96 53 -293 -100 -293 -96 0 -167 69
-167 164 0 62 24 108 74 140 35 24 49 27 98 24 46 -3 65 -11 95 -35z"/>
</g>
</svg>
